<?xml version="1.0" encoding="utf-8"?>
<!-- Generator: Adobe Illustrator 21.1.0, SVG Export Plug-In . SVG Version: 6.00 Build 0)  -->
<svg version="1.1" id="Layer_1" xmlns="http://www.w3.org/2000/svg" xmlns:xlink="http://www.w3.org/1999/xlink" x="0px" y="0px"
	 width="878px" height="286px" viewBox="0 0 878 286" style="enable-background:new 0 0 878 286;" xml:space="preserve">
<style type="text/css">
	.st0{fill:#FFFFFF;}
	.st1{fill:#FFFFFF;stroke:#666666;stroke-width:3.1868;stroke-miterlimit:10;}
	.st2{fill:#F8A1C6;}
	.st3{fill:none;stroke:#666666;stroke-width:3.1868;stroke-miterlimit:10;}
	.st4{fill:#FBC937;}
</style>
<g>
	<path class="st0" d="M376.9,77.7c-4.7,0-8.1,1.6-8.1,5.5c0,10.2,29.3,4.7,29.2,24.7c0,11.3-10.1,16.4-21.1,16.4
		c-8.1,0-16.7-2.7-22.2-7.7l4.2-8.5c4.8,4.2,12.4,6.8,18.5,6.8c5.1,0,9-1.8,9-5.9c0-11.3-29-5-28.9-24.9c0-11.2,9.7-16,20.3-16
		c6.9,0,14.3,2.1,19.3,5.6l-4.4,8.8C387.9,79.5,381.8,77.7,376.9,77.7z"/>
	<path class="st0" d="M502.2,89.5v34.3h-11.9v-31c0-8.4-5-13.5-13.1-13.5c-9.4,0.3-15.1,7.6-15.1,17.2v27.3h-11.9v-31
		c0-8.4-4.9-13.5-13-13.5c-9.5,0.3-15.3,7.6-15.3,17.2v27.3h-11.8V68.6h11.8v10.7c3.8-7.8,10.9-11.1,20-11.1
		c9.8,0,16.6,4.9,19.2,13.3c3.5-9.2,10.9-13.3,20.9-13.3C494.6,68.2,502.2,76.3,502.2,89.5z"/>
	<path class="st0" d="M570.5,96.1c0,16.7-11.7,28.1-28.7,28.1c-17.1,0-28.8-11.4-28.8-28.1c0-16.6,11.7-27.9,28.8-27.9
		C558.8,68.2,570.5,79.5,570.5,96.1z M524.9,96.3c0,10.7,6.9,17.9,16.9,17.9c9.8,0,16.8-7.3,16.8-17.9c0-10.6-6.9-17.9-16.8-17.9
		C531.8,78.4,524.9,85.7,524.9,96.3z"/>
	<path class="st0" d="M635.3,96.1c0,16.7-11.7,28.1-28.7,28.1c-17.1,0-28.8-11.4-28.8-28.1c0-16.6,11.7-27.9,28.8-27.9
		C623.6,68.2,635.3,79.5,635.3,96.1z M589.7,96.3c0,10.7,6.9,17.9,16.9,17.9c9.8,0,16.8-7.3,16.8-17.9c0-10.6-6.9-17.9-16.8-17.9
		C596.6,78.4,589.7,85.7,589.7,96.3z"/>
	<path class="st0" d="M678.9,120.3c-4.4,2.6-8.9,4-13.6,4c-8.3,0-15.4-4.8-15.4-16.1V79.6h-7.8v-8.9h7.8V55.6h11.8v15.1H678v8.9
		h-16.3v26.4c0,5.7,2.2,7.5,5.9,7.5c2.5,0,5.1-0.8,8.3-2.4L678.9,120.3z"/>
	<path class="st0" d="M743.3,89.5v34.3h-11.9v-31c0-8.3-5-13.4-13.3-13.4c-9.8,0.1-15.8,7.5-15.8,17.2v27.2h-11.9V46.9h11.9v32.5
		c3.9-7.8,11-11.2,20.4-11.2C735.6,68.2,743.3,76.3,743.3,89.5z"/>
	<path class="st0" d="M772.1,52.9c0,4-3,7-6.9,7s-6.9-3-6.9-7c0-4.1,3-7.2,6.9-7.2S772.1,48.7,772.1,52.9z M771.1,68.6v55.1h-11.8
		V68.6H771.1z"/>
	<path class="st0" d="M837.2,100.8h-41.7c1.9,8.5,8.4,13.8,17.1,13.8c6,0,11.5-2.3,15.5-6.4l6.3,6.7c-5.4,5.9-13.3,9.3-22.8,9.3
		c-17,0-28.2-11.3-28.2-27.9c0-16.7,11.5-28,27.9-28.1C830.8,68.2,838.6,80.9,837.2,100.8z M826.8,92.1c-0.4-8.9-6.3-14.3-15.3-14.3
		c-8.7,0-14.9,5.5-16.2,14.3H826.8z"/>
	<path class="st0" d="M379.2,174.1c-3.1,0-5.3,1.1-5.3,3.5c0,7.4,29.4,3.8,29.3,23.3c0,11.5-10.1,18-23.7,18c-9.4,0-18.5-2.7-25.3-8
		l5.8-11.9c6.4,4.5,13.7,6.9,19.9,6.9c3.4,0,5.9-1.1,5.9-3.4c0-7.7-28.9-3.8-28.9-23.2c0-11.7,9.8-18.1,23-18.1
		c8.1,0,16.3,2.3,23.3,6.5l-6.2,12C390.1,176.2,383.7,174.1,379.2,174.1z"/>
	<path class="st0" d="M469.9,190.1c0,17.3-12.2,28.7-30.7,28.7c-18.5,0-30.6-11.4-30.6-28.7c0-17.2,12.1-28.6,30.6-28.6
		C457.6,161.5,469.9,172.9,469.9,190.1z M427.2,190.3c0,8.4,4.9,14,12,14c7.3,0,12.1-5.6,12.1-14c0-8.3-4.9-13.9-12.1-13.9
		C432,176.4,427.2,182,427.2,190.3z"/>
	<path class="st0" d="M504.5,176.7c-6.6,0-11.2,5.5-11.2,13.6c0,8.2,4.6,13.6,11.2,13.6c4.9,0,8.7-2,11-6.3l13.6,7.8
		c-4.5,8.6-13.6,13.5-25.5,13.5c-17.3,0-28.8-11.3-28.8-28.4c0-17.4,11.6-28.9,29-28.9c11.3,0,20.2,4.9,25.1,13.3l-13.4,7.8
		C513,178.9,509.3,176.7,504.5,176.7z"/>
	<path class="st0" d="M555.9,162.1v56.1h-18.3v-56.1H555.9z M555.2,146.4c0,4.9-3.5,8.4-8.4,8.4s-8.4-3.5-8.4-8.4
		c0-5,3.5-8.5,8.4-8.5S555.2,141.4,555.2,146.4z"/>
	<path class="st0" d="M619.8,181.7v36.5h-18.1v-6.3c-3.6,4.7-9.3,7.2-16.9,7.2c-12,0-19.2-7.3-19.2-17.5c0-10.7,7.6-16.8,21.5-17
		h14.6v-0.6c0-5.3-3.6-8.4-10.7-8.4c-4.7,0-10.8,1.6-16.8,4.5l-5.1-12.4c8.8-3.9,16.9-6.1,26.1-6.1
		C610.7,161.4,619.7,168.9,619.8,181.7z M601.7,199.2v-4.9h-11c-5.2,0-7.8,1.9-7.8,5.8c0,3.8,2.8,6.3,7.6,6.3
		C596,206.5,600.6,203.5,601.7,199.2z"/>
	<path class="st0" d="M651.2,141.3v76.9h-18.5v-76.9H651.2z"/>
</g>
<g>
	<g>
		<ellipse transform="matrix(0.9912 -0.1326 0.1326 0.9912 -8.39 30.3915)" class="st1" cx="224.1" cy="78.2" rx="59.8" ry="6.8"/>
		<path class="st1" d="M283.3,70.3c0.5,3.7-25.6,10.3-58.3,14.7c-32.7,4.4-59.6,4.9-60.1,1.2l32.8,141.1c0.4,2.9,21.1,2.5,46.2-0.9
			c25.1-3.4,45.2-8.4,44.8-11.3L283.3,70.3z"/>
		<path class="st2" d="M285.3,124.6l-0.9,0.4l1.9,75.5v0.2c0,3-19.8,8.1-45.2,11.5c-25.5,3.4-46.1,3.9-47.1,1.1l0.2-0.4
			c0,0,0.2-0.3,0.2-0.3h0L170,108l0-0.1L285.3,124.6z"/>
		<path class="st3" d="M283.3,70.3c0.5,3.7-25.6,10.3-58.3,14.7c-32.7,4.4-59.6,4.9-60.1,1.2l32.8,141.1c0.4,2.9,21.1,2.5,46.2-0.9
			c25.1-3.4,45.2-8.4,44.8-11.3L283.3,70.3z"/>
	</g>
	<g>
		<ellipse transform="matrix(0.1834 -0.983 0.983 0.1834 -5.8649 185.5725)" class="st1" cx="108.8" cy="96.3" rx="6.8" ry="59.8"/>
		<path class="st1" d="M50,85.4c-0.7,3.7,25.1,11.6,57.5,17.6c32.4,6,59.3,8,60,4.3l-40,139.2c-0.5,2.8-21.2,1.4-46.1-3.3
			c-24.9-4.6-44.7-10.7-44.2-13.5L50,85.4z"/>
		<path class="st4" d="M45.2,139.5l-0.1,0.4l-6.7,75.3l0,0.2c0.1,3,20.2,9.1,45.5,13.8c25.3,4.7,46.3,6.3,47.4,3.5l0.1-0.2
			c0,0,0-0.1,0-0.1h0L161.3,129l0-0.2L45.2,139.5z"/>
		<path class="st3" d="M50,85.4c-0.7,3.7,25.1,11.6,57.5,17.6c32.4,6,59.3,8,60,4.3l-40,139.2c-0.5,2.8-21.2,1.4-46.1-3.3
			c-24.9-4.6-44.7-10.7-44.2-13.5L50,85.4z"/>
	</g>
	<line class="st3" x1="145.1" y1="83.8" x2="129.9" y2="66.2"/>
	<line class="st3" x1="153.3" y1="75.9" x2="141.7" y2="36.5"/>
	<line class="st3" x1="163.2" y1="71.9" x2="165.9" y2="47.7"/>
</g>
</svg>
