<?xml version="1.0" encoding="utf-8"?>
<!-- Generator: Adobe Illustrator 21.1.0, SVG Export Plug-In . SVG Version: 6.00 Build 0)  -->
<svg version="1.1" id="Layer_1" xmlns="http://www.w3.org/2000/svg" xmlns:xlink="http://www.w3.org/1999/xlink" x="0px" y="0px"
	 width="500px" height="322px" viewBox="0 0 500 322" style="enable-background:new 0 0 500 322;" xml:space="preserve">
<style type="text/css">
	.st0{fill:#666666;}
	.st1{font-family:'Copse';}
	.st2{font-size:61.8324px;}
	.st3{letter-spacing:-1;}
	.st4{letter-spacing:2;}
	.st5{fill:#CCCCCC;}
	.st6{fill:#F2F2F2;}
	.st7{fill:none;}
	.st8{fill:#EB1981;}
	.st9{opacity:0.3;fill:#F2F2F2;}
	.st10{fill:none;stroke:#666666;stroke-width:1.8514;stroke-miterlimit:10;}
	.st11{fill:none;stroke:#666666;stroke-width:2.4685;stroke-miterlimit:10;}
	.st12{fill:#F8A1C6;}
	.st13{fill:url(#);}
	.st14{opacity:0.5;fill:#EB1981;}
	.st15{opacity:0.5;fill:url(#);}
</style>
<g>
	<text transform="matrix(1 0 0 1 29.5625 272.8301)"><tspan x="0" y="0" class="st0 st1 st2">s</tspan><tspan x="28" y="0" class="st0 st1 st2 st3">m</tspan><tspan x="85" y="0" class="st0 st1 st2">o</tspan><tspan x="118" y="0" class="st0 st1 st2 st3">o</tspan><tspan x="149.8" y="0" class="st0 st1 st2">th</tspan><tspan x="209.6" y="0" class="st0 st1 st2 st3">i</tspan><tspan x="228.3" y="0" class="st0 st1 st2">e</tspan><tspan x="259.7" y="0" class="st0 st1 st2 st3">So</tspan><tspan x="325.8" y="0" class="st0 st1 st2">ci</tspan><tspan x="376.1" y="0" class="st0 st1 st2 st4">a</tspan><tspan x="410.1" y="0" class="st0 st1 st2">l</tspan></text>
	<g>
		<path class="st5" d="M201.5,196.4c-7.1,0-19.8-2-33.1-5.2c-10-2.4-19.3-5.2-26.1-7.9c-10-4-10.9-6.1-10.6-7.4l16.7-116.1
			c0.4-1.8,3-2.6,8.2-2.6c9.1,0,25.4,2.6,42.5,6.7c12.9,3.1,24.8,6.7,33.6,10.2c14.3,5.7,13.7,8.3,13.5,9.2L208,194.3
			C207.7,195.7,205.7,196.4,201.5,196.4z"/>
		<path class="st0" d="M156.6,58c8.8,0,24.6,2.4,42.3,6.7c26.5,6.4,47.3,14.6,46.4,18.3l-38.1,111c-0.2,1-2.3,1.4-5.7,1.4
			c-6.8,0-19.1-1.9-32.9-5.2c-20.6-5-36.8-11.4-36.1-14.3l16.7-116.2C149.5,58.6,152.2,58,156.6,58 M156.6,56.2L156.6,56.2
			c-5.8,0-8.6,1-9.1,3.2l0,0.1l0,0.1l-16.7,116.1c-0.4,1.9,0.8,4.3,11.2,8.4c6.9,2.7,16.2,5.6,26.3,8c13.6,3.3,26,5.2,33.3,5.2
			c3.3,0,6.8-0.3,7.5-2.7l38.1-111l0-0.1l0-0.1c0.5-2.2-0.7-5.1-14-10.3c-8.8-3.5-20.8-7.1-33.7-10.2
			C182.1,58.7,165.8,56.2,156.6,56.2L156.6,56.2z"/>
	</g>
	<path class="st6" d="M152.5,60.7l-14.7,102.3c5.5,3.3,18.7,8,34.5,11.8c15.8,3.8,29.7,5.7,36.1,5.3l33.5-97.7l0,0
		c-0.8,3.5-21.5,1.5-46.2-4.5C171,71.8,151.7,64.1,152.5,60.7L152.5,60.7z"/>
	
		<ellipse transform="matrix(0.2346 -0.9721 0.9721 0.2346 81.5227 246.4069)" class="st7" cx="197.2" cy="71.4" rx="6.9" ry="49.4"/>
	<path class="st8" d="M241.1,84.7l-2,5.8c0,0.1,0,0.1-0.1,0.2L208.4,180c-6.4,0.5-20.3-1.5-36.1-5.3c-15.8-3.8-29-8.4-34.5-11.8
		l6-41.5c0,0,39.4,6.2,79.3-24c4.8-3.6,8.3-8,11-12.7C236.9,84.9,239.2,84.9,241.1,84.7z"/>
	<ellipse transform="matrix(0.2346 -0.9721 0.9721 0.2346 81.5219 246.407)" class="st6" cx="197.2" cy="71.4" rx="6.5" ry="46"/>
	<path class="st8" d="M242.8,79.9c-0.3,0.8-0.6,1.5-0.8,2.3l-0.1,0.2c-0.5,1.1-3.1,1.6-7.4,1.5c1.1-1.9,2-3.9,2.8-5.9
		c0.1-0.3,0.2-0.6,0.3-0.8c2.9-7.2,4.6-15,6.6-22.5c1.1-4.1,2.7-11.2,8.1-11.6c5.1-0.4,9.7,3.8,7,8.4c-3,5.2-7.1,9.8-10.2,15
		C246.7,70.8,244.5,75.3,242.8,79.9z"/>
	<path class="st9" d="M152.5,60.7l-14.7,102.3c5.5,3.3,18.7,8,34.5,11.8c15.8,3.8,29.7,5.7,36.1,5.3l33.5-97.7l0,0
		c-0.8,3.5-21.5,1.5-46.2-4.5C171,71.8,151.7,64.1,152.5,60.7L152.5,60.7z"/>
	<path class="st10" d="M152.3,62.5l-14.5,100.4c5.5,3.3,18.7,8,34.5,11.8c15.8,3.8,29.7,5.7,36.1,5.3l32.9-96"/>
	<path class="st0" d="M245.2,83c-0.2,0.9-1.7,1.5-4.2,1.7c-1.8,0.2-4.2,0.2-7,0c-9.2-0.5-23.1-2.8-38.4-6.5
		c-26.5-6.4-47.3-14.6-46.4-18.3c0.9-3.7,23.1-1.6,49.6,4.8c16.4,4,30.6,8.6,38.8,12.5c-0.1,0.3-0.2,0.6-0.3,0.8
		c-7.1-3.8-21.6-8.7-38.6-12.8c-24.7-6-45.4-8-46.2-4.5c-0.8,3.5,18.5,11.1,43.2,17.1c16.1,3.9,30.5,6.1,38.8,6.2
		c4.2,0.1,6.9-0.4,7.4-1.5c0-0.1,0-0.1,0.1-0.2c0.3-0.8,0.5-1.6,0.8-2.3C244.5,81.1,245.4,82.2,245.2,83z"/>
	<path class="st11" d="M245.2,83c-0.2,0.9-1.7,1.5-4.2,1.7c-1.8,0.2-4.2,0.2-7,0c-9.2-0.5-23.1-2.8-38.4-6.5
		c-26.5-6.4-47.3-14.6-46.4-18.3"/>
	<g>
		<path class="st5" d="M295.4,192.5c-1.8,0-4.3-0.2-4.8-1.8L245.4,82.6c-1.9-6,29-17.4,45.6-22.6c18.6-5.8,36-9.5,44.5-9.5
			c3.6,0,5.4,0.7,5.9,2.1l24.3,114.9c0.4,1.3-0.4,3.4-10.1,8c-6.7,3.2-15.7,6.6-25.6,9.6C315.6,189.6,302,192.5,295.4,192.5z"/>
		<path class="st0" d="M335.5,51.4c2.9,0,4.7,0.5,5,1.4l24.3,114.8c0.9,2.8-14.8,10.3-35,16.6c-14.9,4.6-28.1,7.4-34.4,7.4
			c-2.3,0-3.6-0.4-3.9-1.1L246.2,82.2c-1.1-3.7,19-13.2,45.1-21.3C310.4,54.9,327.4,51.4,335.5,51.4 M335.5,49.5L335.5,49.5
			c-8.5,0-26.1,3.8-44.8,9.6c-12.7,4-24.4,8.4-33,12.4c-12.9,6.1-14,9.1-13.3,11.2l0,0.1l0,0.1l45.2,108.2c0.7,2,3.4,2.3,5.6,2.3
			c6.7,0,20.4-2.9,34.9-7.5c9.9-3.1,19-6.5,25.7-9.7c10.1-4.8,11.1-7.2,10.6-9.1L342.3,52.4l0-0.1l0-0.1
			C341.5,49.9,338.3,49.5,335.5,49.5L335.5,49.5z"/>
	</g>
	<path class="st6" d="M249.5,81.2l39.9,95.3c6.4,0.1,20.2-2.8,35.7-7.6c15.5-4.8,28.4-10.3,33.7-14L337.3,53.8l0,0
		c1.1,3.4-17.7,12.3-42,19.9C271.1,81.2,250.5,84.6,249.5,81.2L249.5,81.2z"/>
	<ellipse transform="matrix(0.9546 -0.2977 0.2977 0.9546 -6.7976 90.4099)" class="st7" cx="293.4" cy="67.5" rx="49.4" ry="6.9"/>
	<ellipse transform="matrix(0.9546 -0.2977 0.2977 0.9546 -6.7978 90.4088)" class="st6" cx="293.4" cy="67.5" rx="46" ry="6.5"/>
	<path class="st12" d="M260.6,82c-6.3,0.8-10.4,0.7-11.1-0.6l-0.1-0.2v0c0,0-0.3-0.8-1.1-2.1c-1.7-2.8-5.8-8.2-14.6-16.2
		c-4.8-4.3-11.7-9.4-14.7-15.2c-4.9-9.4,7.1-16.6,14.6-10.4c7.8,6.5,9.5,17.8,14.2,26.4c2.2,3.9,4.6,7.7,7.3,11.3
		c0.2,0.2,0.3,0.4,0.5,0.7C257.1,77.9,258.8,80,260.6,82z"/>
	<path class="st12" d="M350.7,117.2l8,37.7c-5.3,3.7-18.2,9.2-33.7,14c-15.5,4.8-29.2,7.7-35.7,7.6l-38.8-92.9
		c2.6,0.1,6.2-0.3,10.7-1c3,3.3,6.1,6.5,9.5,9.4c4.9,4.4,10,8.5,15.5,12.2c12.9,8.8,27.3,15,43.6,15.3
		C336.4,119.7,344.2,119.2,350.7,117.2z"/>
	<path class="st9" d="M249.5,81.2l39.9,95.3c6.4,0.1,20.2-2.8,35.7-7.6c15.5-4.8,28.4-10.3,33.7-14L337.3,53.8l0,0
		c1.1,3.4-17.7,12.3-42,19.9C271.1,81.2,250.5,84.6,249.5,81.2L249.5,81.2z"/>
	<path class="st10" d="M250.1,82.6l39.2,93.9c6.4,0.1,20.2-2.8,35.7-7.6c15.5-4.8,28.4-10.3,33.7-14l-21-99.2"/>
	<path class="st0" d="M340.5,52.8c1.1,3.7-19,13.2-45.1,21.3c-13.2,4.1-25.3,7.1-34.2,8.5c-4.5,0.7-8.1,1.1-10.7,1
		c-2.5-0.1-4-0.5-4.3-1.4c-0.2-0.8,0.5-1.9,2.1-3.1c0.8,1.4,1.1,2.1,1.1,2.1v0c0,0.1,0,0.1,0.1,0.2c0.7,1.3,4.8,1.5,11.1,0.6
		c8.5-1.1,21-4.1,34.7-8.3c24.2-7.6,43-16.4,42-19.9c-1.1-3.4-21.6,0-45.8,7.5c-15.5,4.8-28.7,10.2-36,14.3
		c-0.2-0.2-0.3-0.4-0.5-0.7c8.1-4.2,21.3-9.4,36.3-14.1C317.3,52.8,339.3,49.2,340.5,52.8z"/>
	<path class="st11" d="M340.5,52.8c1.1,3.7-19,13.2-45.1,21.3c-13.2,4.1-25.3,7.1-34.2,8.5c-4.5,0.7-8.1,1.1-10.7,1
		c-2.5-0.1-4-0.5-4.3-1.4"/>
	<path class="st14" d="M244.1,55.6c-1.2,4.6-2.3,9.2-3.7,13.8c1.9,2,3.4,3.7,4.6,5.2c1.3-2.7,2.7-5.4,4.2-8c0,0,0,0,0-0.1
		c-0.5-0.9-1-1.8-1.5-2.7C246.3,61.2,245.2,58.4,244.1,55.6z"/>
</g>
</svg>
